<svg version="1.1" id="Layer_1" xmlns="http://www.w3.org/2000/svg" xmlns:xlink="http://www.w3.org/1999/xlink" x="0px" y="0px"
	 width="100%" viewBox="0 0 175 172" enable-background="new 0 0 175 172" xml:space="preserve">
<path fill="#FFFFFF" opacity="1.000000" stroke="none" 
	d="
M97.000000,0.999999 
	C123.316299,1.000000 149.632599,1.000000 175.974457,1.000000 
	C175.974457,58.279205 175.974457,115.558426 175.974457,172.918823 
	C117.758614,172.918823 59.517082,172.918823 1.137775,172.918823 
	C1.137775,115.666878 1.137775,58.333492 1.137775,1.000000 
	C27.096142,1.000000 53.079414,1.000000 79.375198,1.390369 
	C77.863541,1.861884 75.986473,1.691776 74.223381,2.063001 
	C56.408600,5.813961 40.590763,13.152221 27.772127,26.620014 
	C7.379163,48.045719 -0.686233,72.911087 4.936294,102.158371 
	C10.233212,129.711914 25.948912,149.336258 50.504795,161.969254 
	C65.888916,169.883743 82.295761,172.533463 99.686348,170.121078 
	C120.434227,167.242981 137.621216,158.298599 151.693558,142.865204 
	C163.745605,129.647491 170.701080,114.386406 173.174896,96.590332 
	C175.336868,81.037445 173.241989,66.232132 166.880234,52.313908 
	C155.457275,27.322826 136.480728,10.640917 109.455727,3.831067 
	C105.328110,2.790977 101.153091,1.938987 97.000000,0.999999 
z"/>
<path fill="#212121" opacity="1.000000" stroke="none" 
	d="
M96.532394,0.999999 
	C101.153091,1.938987 105.328110,2.790977 109.455727,3.831067 
	C136.480728,10.640917 155.457275,27.322826 166.880234,52.313908 
	C173.241989,66.232132 175.336868,81.037445 173.174896,96.590332 
	C170.701080,114.386406 163.745605,129.647491 151.693558,142.865204 
	C137.621216,158.298599 120.434227,167.242981 99.686348,170.121078 
	C82.295761,172.533463 65.888916,169.883743 50.504795,161.969254 
	C25.948912,149.336258 10.233212,129.711914 4.936294,102.158371 
	C-0.686233,72.911087 7.379163,48.045719 27.772127,26.620014 
	C40.590763,13.152221 56.408600,5.813961 74.223381,2.063001 
	C75.986473,1.691776 77.863541,1.861884 79.843857,1.390369 
	C85.354927,1.000000 90.709862,1.000000 96.532394,0.999999 
M101.212959,12.992643 
	C90.023056,10.215398 78.651283,9.353148 67.177734,10.062647 
	C64.262039,10.242947 61.203789,10.745968 58.537735,11.873314 
	C47.892521,16.374676 38.520050,22.626453 30.313990,31.013548 
	C6.701245,55.147209 1.477435,91.313713 16.265749,121.258476 
	C24.630245,138.195709 37.712479,150.810501 55.234226,158.693268 
	C79.275726,169.509216 103.233978,168.669083 126.123367,156.664581 
	C146.615936,145.917130 160.813904,128.888794 166.369781,105.956779 
	C169.447479,93.253426 172.050049,80.190140 164.480103,67.811432 
	C164.009155,67.041313 164.161758,65.889893 164.599228,65.258614 
	C165.226364,66.321892 165.853500,67.385170 166.982346,69.299080 
	C157.084457,21.732840 106.079376,-2.971139 69.037758,9.158564 
	C80.913216,8.714530 91.807144,8.397140 101.212959,12.992643 
z"/>
<path fill="#4F4F4F" opacity="1.000000" stroke="none" 
	d="
M164.024261,64.915871 
	C164.161758,65.889893 164.009155,67.041313 164.480103,67.811432 
	C172.050049,80.190140 169.447479,93.253426 166.369781,105.956779 
	C160.813904,128.888794 146.615936,145.917130 126.123367,156.664581 
	C103.233978,168.669083 79.275726,169.509216 55.234226,158.693268 
	C37.712479,150.810501 24.630245,138.195709 16.265749,121.258476 
	C1.477435,91.313713 6.701245,55.147209 30.313990,31.013548 
	C38.520050,22.626453 47.892521,16.374676 58.537735,11.873314 
	C61.203789,10.745968 64.262039,10.242947 67.177734,10.062647 
	C78.651283,9.353148 90.023056,10.215398 101.606522,12.994980 
	C102.000084,12.997316 101.976898,12.934047 102.175064,13.242047 
	C106.267708,14.692976 110.162201,15.835904 114.028458,16.988277 
	C114.000237,16.997721 114.016930,16.940592 114.024277,17.304873 
	C115.706985,18.438776 117.382339,19.208397 119.029465,19.988121 
	C119.001228,19.998224 119.016869,19.940325 119.025345,20.304718 
	C120.041939,21.105293 121.050072,21.541473 122.029572,21.987444 
	C122.000938,21.997234 122.020119,21.939840 122.007401,22.265079 
	C122.624420,23.029013 123.254143,23.467705 123.922501,24.178001 
	C123.973930,24.632044 123.986717,24.814486 124.196060,25.277996 
	C125.280769,25.698351 126.168930,25.837635 127.029266,25.987789 
	C127.001434,25.998655 127.015411,25.940567 127.036118,26.326597 
	C128.170166,27.134418 129.283508,27.556210 130.666321,28.143494 
	C134.964172,32.406639 138.992523,36.504295 142.999542,40.961281 
	C143.613464,41.849026 144.248718,42.377438 145.018188,43.190975 
	C145.768127,44.316372 146.383865,45.156639 147.135406,46.322739 
	C148.313583,47.425529 149.355988,48.202496 150.607697,49.084862 
	C151.218597,49.661144 151.620193,50.132023 151.980331,51.023823 
	C152.759186,52.290199 153.579468,53.135654 154.665375,54.143131 
	C156.961456,56.404716 158.991898,58.504280 160.993423,60.963699 
	C161.331619,61.889877 161.698761,62.456200 162.028091,63.013462 
	C161.990280,63.004402 162.005112,62.928070 162.038315,63.269066 
	C162.734314,64.067123 163.397095,64.524185 164.031067,64.975906 
	C164.002274,64.970581 164.024261,64.915871 164.024261,64.915871 
M105.814217,72.980476 
	C113.232849,72.664452 117.543198,68.815529 119.691231,60.589024 
	C121.209755,54.773396 117.889709,45.934563 113.099289,43.039555 
	C106.884773,39.283916 100.318550,41.116379 96.760506,47.599289 
	C91.044655,58.013809 94.244759,67.818581 105.814217,72.980476 
M61.525463,71.181076 
	C64.790672,71.408852 68.538841,72.789574 71.235466,71.659981 
	C81.580376,67.326599 83.142517,50.412411 74.099373,43.710854 
	C70.090942,40.740345 65.939407,40.016792 61.235703,42.845936 
	C51.862122,48.483868 51.527710,63.025333 61.525463,71.181076 
M84.404602,133.996048 
	C91.054237,133.307190 93.966301,128.840561 95.486977,122.995743 
	C97.056580,116.962830 95.869812,111.198799 91.855072,106.752823 
	C89.222961,103.837982 85.370796,101.527985 80.706177,103.678665 
	C74.843369,106.381790 71.169266,112.964157 72.072029,120.550995 
	C72.799278,126.662750 76.185616,133.350449 84.404602,133.996048 
z"/>
<path fill="#7F7F7F" opacity="1.000000" stroke="none" 
	d="
M146.999603,45.996906 
	C146.383865,45.156639 145.768127,44.316372 144.942657,42.901066 
	C144.162231,41.751339 143.591553,41.176647 143.020874,40.601952 
	C138.992523,36.504295 134.964172,32.406639 130.428360,27.903778 
	C128.952408,26.979239 127.983910,26.459902 127.015411,25.940567 
	C127.015411,25.940567 127.001434,25.998655 126.850800,25.692444 
	C125.799950,25.256466 124.899734,25.126698 123.999512,24.996929 
	C123.986717,24.814486 123.973930,24.632044 123.858444,23.902229 
	C123.177208,22.883186 122.598663,22.411512 122.020119,21.939840 
	C122.020119,21.939840 122.000938,21.997234 121.884323,21.708778 
	C120.850761,20.926991 119.933815,20.433657 119.016869,19.940325 
	C119.016869,19.940325 119.001228,19.998224 118.866959,19.697599 
	C117.160767,18.578180 115.588844,17.759386 114.016930,16.940592 
	C114.016930,16.940592 114.000237,16.997721 113.829666,16.679245 
	C109.765022,15.218531 105.870964,14.076289 101.976898,12.934047 
	C101.976898,12.934047 102.000084,12.997316 102.032928,12.988617 
	C91.807144,8.397140 80.913216,8.714530 69.037758,9.158564 
	C106.079376,-2.971139 157.084457,21.732840 166.982346,69.299080 
	C165.853500,67.385170 165.226364,66.321892 164.311737,65.087242 
	C164.024261,64.915871 164.002274,64.970581 163.919434,64.697289 
	C163.226105,63.925354 162.615616,63.426712 162.005112,62.928070 
	C162.005112,62.928070 161.990280,63.004402 161.989197,62.674091 
	C161.666183,61.763802 161.344269,61.183823 161.022354,60.603848 
	C158.991898,58.504280 156.961456,56.404716 154.435883,53.878174 
	C153.301102,52.501762 152.661438,51.552330 152.021774,50.602901 
	C151.620193,50.132023 151.218597,49.661144 150.376297,48.816551 
	C148.956924,47.627529 147.978256,46.812218 146.999603,45.996906 
z"/>
<path fill="#000000" opacity="1.000000" stroke="none" 
	d="
M105.416992,72.942642 
	C94.244759,67.818581 91.044655,58.013809 96.760506,47.599289 
	C100.318550,41.116379 106.884773,39.283916 113.099289,43.039555 
	C117.889709,45.934563 121.209755,54.773396 119.691231,60.589024 
	C117.543198,68.815529 113.232849,72.664452 105.416992,72.942642 
z"/>
<path fill="#000000" opacity="1.000000" stroke="none" 
	d="
M61.164658,71.054214 
	C51.527710,63.025333 51.862122,48.483868 61.235703,42.845936 
	C65.939407,40.016792 70.090942,40.740345 74.099373,43.710854 
	C83.142517,50.412411 81.580376,67.326599 71.235466,71.659981 
	C68.538841,72.789574 64.790672,71.408852 61.164658,71.054214 
z"/>
<path fill="#000000" opacity="1.000000" stroke="none" 
	d="
M84.001709,133.996048 
	C76.185616,133.350449 72.799278,126.662750 72.072029,120.550995 
	C71.169266,112.964157 74.843369,106.381790 80.706177,103.678665 
	C85.370796,101.527985 89.222961,103.837982 91.855072,106.752823 
	C95.869812,111.198799 97.056580,116.962830 95.486977,122.995743 
	C93.966301,128.840561 91.054237,133.307190 84.001709,133.996048 
z"/>
<path fill="#212121" opacity="1.000000" stroke="none" 
	d="
M102.175064,13.242047 
	C105.870964,14.076289 109.765022,15.218531 113.857887,16.669802 
	C110.162201,15.835904 106.267708,14.692976 102.175064,13.242047 
z"/>
<path fill="#212121" opacity="1.000000" stroke="none" 
	d="
M114.024277,17.304873 
	C115.588844,17.759386 117.160767,18.578180 118.895187,19.687496 
	C117.382339,19.208397 115.706985,18.438776 114.024277,17.304873 
z"/>
<path fill="#212121" opacity="1.000000" stroke="none" 
	d="
M147.135406,46.322739 
	C147.978256,46.812218 148.956924,47.627529 150.166977,48.711151 
	C149.355988,48.202496 148.313583,47.425529 147.135406,46.322739 
z"/>
<path fill="#212121" opacity="1.000000" stroke="none" 
	d="
M127.036118,26.326597 
	C127.983910,26.459902 128.952408,26.979239 130.158875,27.738289 
	C129.283508,27.556210 128.170166,27.134418 127.036118,26.326597 
z"/>
<path fill="#212121" opacity="1.000000" stroke="none" 
	d="
M119.025345,20.304718 
	C119.933815,20.433657 120.850761,20.926991 121.912949,21.698990 
	C121.050072,21.541473 120.041939,21.105293 119.025345,20.304718 
z"/>
<path fill="#212121" opacity="1.000000" stroke="none" 
	d="
M151.980331,51.023823 
	C152.661438,51.552330 153.301102,52.501762 154.170258,53.716148 
	C153.579468,53.135654 152.759186,52.290199 151.980331,51.023823 
z"/>
<path fill="#212121" opacity="1.000000" stroke="none" 
	d="
M122.007401,22.265079 
	C122.598663,22.411512 123.177208,22.883186 123.819809,23.630629 
	C123.254143,23.467705 122.624420,23.029013 122.007401,22.265079 
z"/>
<path fill="#212121" opacity="1.000000" stroke="none" 
	d="
M124.196060,25.277996 
	C124.899734,25.126698 125.799950,25.256466 126.878632,25.681578 
	C126.168930,25.837635 125.280769,25.698351 124.196060,25.277996 
z"/>
<path fill="#212121" opacity="1.000000" stroke="none" 
	d="
M142.999542,40.961285 
	C143.591553,41.176647 144.162231,41.751339 144.808456,42.615940 
	C144.248718,42.377438 143.613464,41.849026 142.999542,40.961285 
z"/>
<path fill="#212121" opacity="1.000000" stroke="none" 
	d="
M162.038315,63.269066 
	C162.615616,63.426712 163.226105,63.925354 163.948242,64.702621 
	C163.397095,64.524185 162.734314,64.067123 162.038315,63.269066 
z"/>
<path fill="#212121" opacity="1.000000" stroke="none" 
	d="
M160.993423,60.963699 
	C161.344269,61.183823 161.666183,61.763802 162.027008,62.683151 
	C161.698761,62.456200 161.331619,61.889877 160.993423,60.963699 
z"/>
</svg>